<svg width="68" height="60" viewBox="0 0 68 60" fill="none" xmlns="http://www.w3.org/2000/svg">
<path d="M68 0.948621C68 0.948621 68 0.948607 68 0.817122C67.9571 0.661681 67.8854 0.515254 67.7884 0.385109C67.7884 0.385109 67.7884 0.385103 67.7884 0.291186C67.6553 0.172534 67.4979 0.0828925 67.3267 0.0282176H67.2112C67.0467 -0.00940587 66.8755 -0.00940587 66.711 0.0282176L33.7365 8.725L11.093 14.9048C5.47538 16.4262 2.66658 17.1964 1.26218 17.7223C-0.084508 18.2482 -0.0460301 18.53 0.0309233 19.0935C0.059837 19.2982 0.142292 19.4921 0.270346 19.6567C0.3984 19.8212 0.567725 19.9507 0.761975 20.0327C1.99323 21.0282 8.8036 29.0863 14.7675 36.4119L19.8464 59.2527C19.8814 59.3718 19.9332 59.4856 20.0003 59.5908C20.0951 59.6994 20.2052 59.7943 20.3274 59.8725C20.4657 59.9385 20.6161 59.9769 20.7699 59.9852C20.8973 60.0049 21.0272 60.0049 21.1546 59.9852C21.2804 59.9519 21.3981 59.8944 21.5009 59.8162L35.6603 49.8421L43.0286 53.5989C43.1803 53.6778 43.3469 53.7253 43.5182 53.7386C43.6895 53.7519 43.8618 53.7305 44.0242 53.6759C44.1867 53.6212 44.3359 53.5345 44.4625 53.421C44.5891 53.3076 44.6904 53.1699 44.7601 53.0165L67.8461 1.49333C67.9378 1.32502 67.9904 1.13904 68 0.948621ZM62.8826 3.39046L60.2277 6.18921L16.1334 34.2142C9.0537 25.5362 5.47537 21.4039 3.59001 19.4504C11.9587 17.0837 45.2795 8.10512 62.8826 3.39046ZM25.4255 42.7232C25.3005 42.8432 25.2079 42.9916 25.1562 43.1552L21.3085 54.4253L17.307 36.4307L53.2442 13.5711L25.4255 42.7232ZM23.5017 55.6838L27.0993 45.2965L33.371 48.5648L23.5017 55.6838ZM43.1441 50.9128L28.4075 43.2116L62.7672 7.14716L43.1441 50.9128Z" fill="#D3E2FF"/>
</svg>
