<svg width="124" height="98" viewBox="0 0 124 98" fill="none" xmlns="http://www.w3.org/2000/svg">
<path d="M84.8955 84.1645C77.3068 85.633 69.4529 84.8184 62.3272 81.8234C55.2014 78.8284 49.1238 73.7876 44.8629 67.3384C40.602 60.8893 38.3492 53.3215 38.3893 45.5921C38.4294 37.8626 40.7607 30.3186 45.0883 23.914C49.416 17.5095 55.5456 12.5321 62.7021 9.6112C69.8585 6.69033 77.7204 5.95718 85.2935 7.50448C92.8667 9.05178 99.8109 12.81 105.248 18.304C110.685 23.7979 114.371 30.7808 115.84 38.3696C117.794 48.5442 115.634 59.0785 109.833 67.663C104.033 76.2475 95.0646 82.1816 84.8955 84.1645ZM70.3082 8.78598C62.9885 10.2025 56.2533 13.7577 50.9541 19.0021C45.655 24.2465 42.0301 30.9445 40.5376 38.2491C39.0452 45.5536 39.7524 53.1367 42.5697 60.0394C45.3869 66.9421 50.1878 72.8543 56.3652 77.0285C62.5427 81.2027 69.8192 83.4513 77.2745 83.49C84.7299 83.5287 92.0294 81.3558 98.2498 77.246C104.47 73.1362 109.332 67.2741 112.221 60.401C115.11 53.528 115.896 45.9526 114.479 38.6329C112.573 28.8211 106.851 20.1669 98.5688 14.5708C90.287 8.97469 80.1228 6.89413 70.3082 8.78598Z" fill="#FDDACA"/>
<path d="M78.5552 85.3915C70.9664 86.8601 63.1126 86.0454 55.9868 83.0504C48.8611 80.0554 42.7835 75.0146 38.5226 68.5655C34.2617 62.1163 32.0088 54.5486 32.049 46.8191C32.0891 39.0896 34.4204 31.5456 38.748 25.1411C43.0756 18.7365 49.2053 13.7591 56.3617 10.8382C63.5182 7.91735 71.3801 7.1842 78.9532 8.7315C86.5263 10.2788 93.4706 14.037 98.9077 19.531C104.345 25.0249 108.031 32.0078 109.499 39.5966C111.454 49.7712 109.293 60.3055 103.493 68.89C97.6922 77.4745 88.7243 83.4086 78.5552 85.3915ZM63.9679 10.013C56.6482 11.4295 49.9129 14.9847 44.6138 20.2291C39.3147 25.4735 35.6897 32.1715 34.1973 39.4761C32.7049 46.7807 33.412 54.3637 36.2293 61.2664C39.0466 68.1691 43.8475 74.0814 50.0249 78.2555C56.2023 82.4297 63.4788 84.6784 70.9342 84.7171C78.3896 84.7558 85.689 82.5828 91.9095 78.473C98.1299 74.3632 102.992 68.5011 105.881 61.628C108.77 54.755 109.555 47.1796 108.139 39.8599C106.226 30.0517 100.502 21.4022 92.222 15.8073C83.9421 10.2124 73.7816 8.12876 63.9679 10.013Z" fill="#FDDACA"/>
<path d="M72.2417 86.6133C64.6528 88.0875 56.7972 87.2779 49.6685 84.2868C42.5398 81.2958 36.4583 76.2577 32.1933 69.8099C27.9283 63.362 25.6715 55.7942 25.7082 48.0635C25.7449 40.3328 28.0735 32.7867 32.3995 26.3796C36.7255 19.9726 42.8546 14.9924 50.0114 12.0692C57.1682 9.146 65.0311 8.41104 72.6057 9.95723C80.1802 11.5034 87.1261 15.2613 92.5646 20.7556C98.0031 26.2499 101.69 33.2337 103.159 40.8237C105.12 50.9944 102.966 61.5276 97.1693 70.112C91.3732 78.6965 82.4082 84.6309 72.2417 86.6133ZM57.6544 11.2348C50.3325 12.6462 43.5937 16.1973 38.2903 21.4391C32.987 26.6809 29.3575 33.3778 27.8608 40.6828C26.3641 47.9877 27.0675 55.5724 29.882 62.4774C32.6966 69.3825 37.4959 75.2977 43.6727 79.4748C49.8496 83.6519 57.1265 85.9032 64.5831 85.944C72.0396 85.9848 79.3408 83.8132 85.563 79.7039C91.7851 75.5945 96.6488 69.7322 99.5387 62.8583C102.429 55.9844 103.215 48.4078 101.798 41.087C99.8928 31.2799 94.175 22.6291 85.8992 17.0326C77.6235 11.4362 67.4656 9.35107 57.6544 11.2348Z" fill="#FDDACA"/>
<path d="M65.9009 87.8403C58.3121 89.3089 50.4583 88.4943 43.3325 85.4993C36.2068 82.5042 30.1292 77.4634 25.8683 71.0143C21.6074 64.5652 19.3545 56.9974 19.3947 49.2679C19.4348 41.5385 21.7661 33.9944 26.0937 27.5899C30.4214 21.1854 36.5509 16.2079 43.7074 13.2871C50.8639 10.3662 58.7257 9.63306 66.2989 11.1804C73.872 12.7277 80.8163 16.4859 86.2534 21.9798C91.6906 27.4738 95.3766 34.4567 96.8452 42.0454C98.8069 52.2209 96.6499 62.7589 90.848 71.3452C85.0461 79.9316 76.0736 85.8642 65.9009 87.8403ZM51.3136 12.4618C43.9939 13.8784 37.2586 17.4336 31.9595 22.678C26.6604 27.9224 23.0354 34.6204 21.543 41.9249C20.0506 49.2295 20.7577 56.8126 23.575 63.7153C26.3923 70.618 31.1932 76.5302 37.3706 80.7044C43.548 84.8786 50.8245 87.1272 58.2799 87.1659C65.7353 87.2046 73.0347 85.0316 79.2552 80.9218C85.4756 76.812 90.3376 70.95 93.2264 64.0769C96.1152 57.2038 96.9011 49.6284 95.4846 42.3088C93.5783 32.497 87.8559 23.8428 79.5741 18.2467C71.2923 12.6506 61.1281 10.57 51.3136 12.4618Z" fill="#FDDACA"/>
<path d="M59.561 89.0673C51.9722 90.5359 44.1183 89.7212 36.9926 86.7262C29.8668 83.7312 23.7892 78.6904 19.5283 72.2412C15.2674 65.7921 13.0146 58.2243 13.0547 50.4949C13.0948 42.7654 15.4261 35.2214 19.7537 28.8168C24.0814 22.4123 30.211 17.4349 37.3674 14.514C44.5239 11.5931 52.3858 10.86 59.9589 12.4073C67.5321 13.9546 74.4763 17.7128 79.9135 23.2068C85.3507 28.7007 89.0366 35.6836 90.5052 43.2724C92.4669 53.4478 90.3099 63.9858 84.508 72.5721C78.7061 81.1585 69.7336 87.0912 59.561 89.0673ZM44.9736 13.6888C37.6539 15.1053 30.9187 18.6605 25.6195 23.9049C20.3204 29.1493 16.6955 35.8473 15.203 43.1519C13.7106 50.4564 14.4177 58.0395 17.235 64.9422C20.0523 71.8449 24.8532 77.7571 31.0307 81.9313C37.2081 86.1055 44.4846 88.3541 51.94 88.3928C59.3953 88.4315 66.6948 86.2586 72.9152 82.1488C79.1356 78.039 83.9976 72.1769 86.8865 65.3038C89.7753 58.4308 90.5611 50.8554 89.1446 43.5357C87.2383 33.7239 81.516 25.0697 73.2342 19.4736C64.9524 13.8775 54.7882 11.7969 44.9736 13.6888Z" fill="#FDDACA"/>
<path d="M53.2203 90.2943C45.6315 91.7629 37.7776 90.9483 30.6519 87.9533C23.5261 84.9583 17.4485 79.9174 13.1876 73.4683C8.92672 67.0192 6.67388 59.4514 6.714 51.7219C6.75413 43.9925 9.08542 36.4484 13.4131 30.0439C17.7407 23.6394 23.8703 18.662 31.0268 15.7411C38.1832 12.8202 46.0451 12.0871 53.6182 13.6344C61.1914 15.1817 68.1356 18.9399 73.5728 24.4339C79.01 29.9278 82.6959 36.9107 84.1645 44.4995C86.1262 54.6749 83.9692 65.2129 78.1673 73.7992C72.3654 82.3856 63.3929 88.3182 53.2203 90.2943ZM38.6329 14.9159C31.3132 16.3324 24.578 19.8876 19.2788 25.132C13.9797 30.3764 10.3548 37.0744 8.86234 44.379C7.3699 51.6835 8.07704 59.2666 10.8943 66.1693C13.7116 73.072 18.5126 78.9842 24.69 83.1584C30.8674 87.3326 38.1439 89.5812 45.5992 89.6199C53.0546 89.6586 60.3541 87.4857 66.5745 83.3758C72.7949 79.266 77.6569 73.404 80.5458 66.5309C83.4346 59.6578 84.2204 52.0824 82.8039 44.7628C80.8976 34.951 75.1753 26.2968 66.8935 20.7007C58.6117 15.1046 48.4475 13.024 38.6329 14.9159Z" fill="#FDDACA"/>
</svg>
