<svg width="236" height="57" viewBox="0 0 236 57" fill="none" xmlns="http://www.w3.org/2000/svg">
<path d="M79.4687 19.8053V38.1125H75.8036V26.2047L70.8981 38.1125H68.1195L63.1965 26.2047V38.1125H59.5349V19.8053H63.7011L69.5176 33.4182L75.3306 19.8053H79.4687Z" fill="#013088"/>
<path d="M97.153 38.1125L95.1628 36.1477C93.4587 37.672 91.238 38.4877 88.9538 38.4282C87.7342 38.4511 86.5238 38.2118 85.4044 37.7265C84.4411 37.3125 83.6175 36.6291 83.0322 35.7583C82.4667 34.8798 82.1751 33.8527 82.1948 32.8077C82.1813 31.6421 82.5397 30.5027 83.2179 29.5553C83.9929 28.5188 85.0344 27.7124 86.2313 27.2222C85.8067 26.7227 85.4616 26.1606 85.2081 25.5557C84.9951 25.0078 84.8881 24.4244 84.8928 23.8365C84.8841 23.0319 85.112 22.2425 85.548 21.5665C86.0134 20.8753 86.6628 20.3284 87.4226 19.9877C88.3157 19.5879 89.2862 19.3914 90.2643 19.4123C91.2443 19.3836 92.216 19.5995 93.0919 20.0404C93.8264 20.4057 94.4341 20.9839 94.8359 21.6997C95.2377 22.4155 95.4151 23.2359 95.345 24.054H91.785C91.8089 23.816 91.784 23.5755 91.7117 23.3474C91.6394 23.1193 91.5212 22.9085 91.3645 22.7278C91.206 22.5726 91.017 22.4519 90.8096 22.3734C90.6021 22.2948 90.3807 22.2603 90.1592 22.2718C89.7129 22.2564 89.2773 22.4105 88.9398 22.7033C88.782 22.842 88.6567 23.014 88.5731 23.2069C88.4895 23.3998 88.4496 23.6088 88.4563 23.819C88.4628 24.28 88.5988 24.7299 88.8487 25.1171C89.2239 25.687 89.6547 26.2182 90.1346 26.7029L94.7423 31.264C94.7745 31.2334 94.8017 31.1978 94.8229 31.1587L94.8754 31.0534L96.3681 28.5624H100.191L98.3583 31.7867C98.0172 32.4537 97.6418 33.1024 97.2336 33.7304L101.659 38.109L97.153 38.1125ZM92.8572 33.8637L88.3512 29.4045C86.6588 30.1623 85.8108 31.2148 85.8108 32.6182C85.8047 32.9938 85.8813 33.3661 86.0351 33.7087C86.1889 34.0513 86.4162 34.3558 86.7008 34.6005C87.3577 35.1559 88.2002 35.4417 89.0589 35.4004C90.4765 35.4028 91.8391 34.8515 92.8572 33.8637Z" fill="#013088"/>
<path d="M106.337 37.6424C105.37 37.2481 104.531 36.5936 103.912 35.7513C103.309 34.9019 102.988 33.8846 102.994 32.8428H106.925C106.935 33.1779 107.01 33.5078 107.147 33.8137C107.285 34.1195 107.481 34.3952 107.724 34.6251C108.275 35.0881 108.982 35.3228 109.701 35.2812C110.425 35.3231 111.141 35.1041 111.719 34.6637C111.957 34.4693 112.147 34.2225 112.274 33.9426C112.401 33.6626 112.461 33.3571 112.451 33.0498C112.46 32.8051 112.421 32.5612 112.335 32.3318C112.25 32.1025 112.12 31.8922 111.954 31.713C111.604 31.3503 111.18 31.0688 110.71 30.8886C110.037 30.628 109.35 30.4043 108.653 30.2184C107.665 29.9347 106.698 29.5831 105.759 29.1659C105.004 28.8139 104.349 28.2813 103.849 27.6152C103.278 26.8106 102.995 25.8363 103.047 24.8505C103.025 23.845 103.309 22.8566 103.859 22.0156C104.425 21.1914 105.218 20.5492 106.141 20.1667C107.202 19.7222 108.344 19.5036 109.494 19.5246C111.379 19.5246 112.911 19.9831 114.091 20.8999C114.678 21.3614 115.157 21.9461 115.494 22.6129C115.831 23.2796 116.019 24.0123 116.043 24.7593H112.006C111.993 24.4568 111.915 24.1608 111.777 23.8913C111.639 23.6219 111.445 23.3854 111.207 23.198C110.642 22.7647 109.942 22.5459 109.231 22.5805C108.604 22.5499 107.988 22.7509 107.5 23.1454C107.281 23.3471 107.109 23.5956 106.998 23.8724C106.887 24.1493 106.84 24.4475 106.859 24.7452C106.852 24.971 106.891 25.1958 106.975 25.4058C107.058 25.6157 107.183 25.8064 107.342 25.9662C107.689 26.3041 108.099 26.5711 108.548 26.7521C109.212 27.022 109.891 27.2562 110.58 27.4538C111.573 27.7357 112.545 28.0874 113.488 28.5063C114.251 28.868 114.916 29.4083 115.426 30.0816C115.998 30.882 116.285 31.8523 116.239 32.8358C116.242 33.7985 115.979 34.7432 115.478 35.5654C114.939 36.4311 114.167 37.1267 113.25 37.5722C112.165 38.0944 110.971 38.3506 109.767 38.3195C108.59 38.3282 107.423 38.0979 106.337 37.6424Z" fill="#013088"/>
<path d="M125.37 37.6669C124.502 37.2917 123.754 36.6848 123.208 35.9127C122.686 35.1757 122.395 34.3002 122.371 33.3971H124.319C124.411 34.2975 124.83 35.1327 125.496 35.7443C126.197 36.4179 127.219 36.7547 128.562 36.7547C129.802 36.7547 130.785 36.4354 131.509 35.7969C131.859 35.4987 132.138 35.126 132.326 34.706C132.514 34.2859 132.606 33.8292 132.595 33.369C132.629 32.6833 132.415 32.0083 131.992 31.4674C131.594 30.988 131.08 30.6174 130.5 30.3903C129.697 30.0886 128.878 29.831 128.047 29.6185C127.056 29.3639 126.084 29.0391 125.139 28.6466C124.412 28.3235 123.781 27.8184 123.306 27.1801C122.763 26.388 122.495 25.4383 122.546 24.4786C122.532 23.5795 122.788 22.6969 123.282 21.9455C123.793 21.178 124.509 20.57 125.349 20.1912C126.311 19.7554 127.359 19.5397 128.415 19.5597C130.107 19.5597 131.477 19.9772 132.514 20.8087C133.015 21.1943 133.432 21.6777 133.74 22.2295C134.049 22.7813 134.242 23.3901 134.308 24.019H132.318C132.167 23.2219 131.73 22.5079 131.088 22.0121C130.269 21.4412 129.295 21.1351 128.297 21.1351C127.3 21.1351 126.326 21.4412 125.507 22.0121C125.147 22.2978 124.86 22.6643 124.669 23.0819C124.478 23.4995 124.388 23.9564 124.406 24.4154C124.374 25.0881 124.588 25.7496 125.009 26.2749C125.416 26.7512 125.934 27.1209 126.516 27.352C127.317 27.6625 128.136 27.9249 128.968 28.1379C129.95 28.3987 130.913 28.7281 131.849 29.1238C132.586 29.4483 133.227 29.9584 133.709 30.6044C134.252 31.3877 134.519 32.3293 134.47 33.2813C134.471 34.1468 134.236 34.9962 133.79 35.7373C133.304 36.5344 132.605 37.1796 131.772 37.6003C130.78 38.0924 129.683 38.3333 128.576 38.3019C127.474 38.3273 126.379 38.1105 125.37 37.6669Z" fill="#FF5001"/>
<path d="M140.629 37.4178C139.557 36.8186 138.676 35.9268 138.089 34.8461C137.473 33.6406 137.152 32.3058 137.152 30.9517C137.152 29.5976 137.473 28.2628 138.089 27.0573C138.689 25.9774 139.579 25.0867 140.658 24.4856C141.782 23.8911 143.034 23.5804 144.305 23.5804C145.576 23.5804 146.829 23.8911 147.953 24.4856C149.036 25.0807 149.927 25.9729 150.521 27.0573C151.161 28.2533 151.481 29.5951 151.45 30.9517C151.479 32.3065 151.154 33.6454 150.507 34.8356C149.907 35.9267 149.007 36.8228 147.914 37.4178C146.788 38.0277 145.525 38.3393 144.246 38.323C142.982 38.341 141.736 38.029 140.629 37.4178ZM146.877 36.0811C147.699 35.6339 148.376 34.9608 148.829 34.1409C149.353 33.1621 149.611 32.062 149.575 30.9517C149.61 29.8443 149.358 28.7466 148.843 27.766C148.398 26.9442 147.723 26.2699 146.902 25.8258C146.091 25.3987 145.189 25.1755 144.274 25.1755C143.358 25.1755 142.456 25.3987 141.646 25.8258C140.828 26.2688 140.158 26.9438 139.722 27.766C139.247 28.7612 139 29.8503 139 30.9535C139 32.0566 139.247 33.1457 139.722 34.1409C140.157 34.9593 140.821 35.6334 141.632 36.0811C142.433 36.5106 143.33 36.7314 144.239 36.7231C145.158 36.7335 146.065 36.5128 146.877 36.0811Z" fill="#FF5001"/>
<path d="M156.649 18.7036V38.1125H154.803V18.7036H156.649Z" fill="#FF5001"/>
<path d="M173.205 23.7909V38.1125H171.369V35.5969C170.965 36.4731 170.284 37.1918 169.432 37.6423C168.528 38.1187 167.52 38.36 166.499 38.344C165.727 38.3756 164.957 38.2511 164.235 37.978C163.512 37.705 162.852 37.2889 162.294 36.7547C161.213 35.6998 160.672 34.1655 160.672 32.1516V23.7909H162.48V31.9481C162.48 33.5059 162.868 34.6952 163.643 35.5162C164.057 35.9348 164.555 36.2612 165.104 36.474C165.653 36.6868 166.24 36.7813 166.828 36.7512C167.44 36.7789 168.05 36.6763 168.619 36.4501C169.188 36.2239 169.703 35.8792 170.129 35.439C170.949 34.5619 171.359 33.2755 171.359 31.5797V23.7909H173.205Z" fill="#FF5001"/>
<path d="M179.779 25.3382V34.2321C179.779 35.1069 179.945 35.7104 180.276 36.0425C180.609 36.3723 181.194 36.5407 182.028 36.5407H183.707V38.1125H181.741C180.449 38.1125 179.488 37.8108 178.857 37.2073C178.23 36.6039 177.915 35.6145 177.915 34.2321V25.3382H175.924V23.7909H177.929V20.1983H179.789V23.7909H183.71V25.3382H179.779Z" fill="#FF5001"/>
<path d="M186.688 20.6894C186.56 20.563 186.459 20.4115 186.391 20.2443C186.324 20.0771 186.291 19.8979 186.296 19.7176C186.291 19.5394 186.324 19.3621 186.391 19.1972C186.459 19.0323 186.56 18.8833 186.688 18.7598C186.942 18.5166 187.28 18.3809 187.631 18.3809C187.982 18.3809 188.32 18.5166 188.573 18.7598C188.702 18.8833 188.803 19.0323 188.871 19.1972C188.938 19.3621 188.971 19.5394 188.966 19.7176C188.971 19.8974 188.94 20.0763 188.874 20.2435C188.807 20.4106 188.708 20.5624 188.58 20.6894C188.457 20.814 188.31 20.9128 188.148 20.9803C187.987 21.0477 187.813 21.0824 187.638 21.0824C187.463 21.0824 187.289 21.0477 187.127 20.9803C186.966 20.9128 186.819 20.814 186.695 20.6894H186.688ZM188.549 23.7839V38.1055H186.713V23.7909L188.549 23.7839Z" fill="#FF5001"/>
<path d="M195.354 37.4178C194.281 36.8177 193.399 35.9262 192.81 34.8461C192.17 33.6497 191.851 32.3082 191.881 30.9517C191.851 29.5935 192.176 28.2509 192.824 27.0573C193.424 25.9774 194.314 25.0867 195.392 24.4856C196.507 23.874 197.761 23.5621 199.033 23.5804C200.308 23.5632 201.567 23.8749 202.687 24.4856C203.77 25.0817 204.66 25.9736 205.256 27.0573C205.87 28.2613 206.191 29.5942 206.191 30.9464C206.191 32.2987 205.87 33.6316 205.256 34.8356C204.656 35.9267 203.756 36.8228 202.663 37.4178C201.537 38.0277 200.274 38.3393 198.994 38.323C197.722 38.3453 196.467 38.0332 195.354 37.4178ZM201.601 36.0811C202.423 35.6339 203.1 34.9607 203.553 34.1409C204.077 33.1621 204.335 32.062 204.299 30.9517C204.334 29.8442 204.082 28.7466 203.567 27.766C203.122 26.9441 202.447 26.2699 201.626 25.8258C200.815 25.3987 199.913 25.1755 198.998 25.1755C198.082 25.1755 197.18 25.3987 196.37 25.8258C195.552 26.2688 194.883 26.9438 194.446 27.766C193.971 28.7612 193.724 29.8503 193.724 30.9535C193.724 32.0566 193.971 33.1457 194.446 34.1409C194.88 34.9601 195.544 35.6344 196.356 36.0811C197.157 36.5106 198.054 36.7314 198.963 36.7231C199.882 36.7335 200.789 36.5128 201.601 36.0811Z" fill="#FF5001"/>
<path d="M220.435 25.1171C221.516 26.172 222.058 27.7064 222.06 29.7202V38.1125H220.252V29.9307C220.252 28.373 219.864 27.1836 219.086 26.3626C218.672 25.9439 218.175 25.6175 217.627 25.4047C217.078 25.1918 216.491 25.0974 215.904 25.1276C215.292 25.0992 214.682 25.2016 214.113 25.4278C213.543 25.6541 213.029 25.999 212.603 26.4398C211.783 27.3169 211.372 28.6034 211.37 30.2991V38.116H209.537V23.7909H211.37V26.2468C211.806 25.3939 212.492 24.6948 213.336 24.2435C214.231 23.7683 215.231 23.527 216.244 23.5418C217.012 23.5099 217.779 23.6329 218.499 23.9035C219.219 24.1741 219.877 24.5868 220.435 25.1171Z" fill="#FF5001"/>
<path d="M227.025 37.1792C226.521 36.8238 226.102 36.3605 225.799 35.8228C225.496 35.2851 225.317 34.6866 225.273 34.0707H227.162C227.2 34.4594 227.321 34.8353 227.518 35.1726C227.714 35.5099 227.982 35.8007 228.301 36.0249C229.101 36.5604 230.052 36.8225 231.013 36.7722C231.853 36.8236 232.683 36.575 233.357 36.0706C233.624 35.8638 233.84 35.5978 233.988 35.2934C234.136 34.9891 234.211 34.6547 234.208 34.3163C234.216 34.0935 234.178 33.8715 234.096 33.6639C234.015 33.4563 233.892 33.2677 233.735 33.1094C233.395 32.7796 232.989 32.5251 232.544 32.3621C231.904 32.1311 231.253 31.9343 230.592 31.7727C229.71 31.5532 228.844 31.273 227.999 30.9342C227.345 30.6612 226.765 30.2339 226.311 29.6886C225.819 29.0576 225.57 28.2706 225.61 27.4713C225.608 26.7743 225.828 26.0948 226.237 25.5311C226.694 24.9123 227.309 24.4276 228.017 24.1277C228.843 23.7654 229.737 23.5859 230.638 23.6014C232.177 23.6014 233.418 23.9909 234.359 24.7698C234.829 25.1637 235.208 25.655 235.47 26.2098C235.732 26.7647 235.871 27.3698 235.876 27.9835H234.044C234.03 27.5948 233.936 27.2132 233.767 26.8628C233.598 26.5125 233.358 26.2012 233.063 25.9486C232.357 25.4012 231.477 25.1272 230.585 25.1768C229.783 25.1397 228.99 25.3704 228.332 25.8328C228.067 26.0129 227.85 26.2549 227.699 26.5379C227.548 26.8209 227.469 27.1365 227.467 27.4573C227.457 27.7095 227.498 27.9611 227.586 28.1977C227.673 28.4343 227.807 28.6512 227.978 28.8361C228.336 29.2056 228.77 29.4918 229.25 29.6746C229.755 29.8781 230.438 30.0991 231.293 30.3447C232.128 30.5612 232.947 30.8332 233.746 31.1587C234.351 31.4154 234.888 31.8093 235.316 32.3095C235.776 32.8805 236.018 33.5969 235.999 34.3303C236.01 35.0661 235.789 35.7865 235.368 36.3898C234.924 37.0163 234.318 37.5108 233.616 37.8213C232.8 38.1828 231.915 38.3612 231.023 38.344C229.398 38.33 228.065 37.9417 227.025 37.1792Z" fill="#FF5001"/>
<path d="M24.5344 56.8196L10.0107 48.7361V30.3833L15.1264 33.2076V45.7223L24.6255 51.0061L34.0966 46.1048V40.3263L5.11571 24.5172V45.0522H0V15.8934L39.2158 37.281V49.2238L24.5344 56.8196Z" fill="#FF5001"/>
<path d="M34.8149 25.8118L14.4011 14.904V12.0726L24.6851 5.85914L34.8219 11.0341V22.2332L39.9411 19.1632V7.89756L24.4749 0L9.2854 9.18517V17.9774L34.8149 31.6218V25.8118Z" fill="#013088"/>
<path d="M37.0714 24.5873V30.4851L44.2544 26.3767V45.9329H49.3701V17.5494L37.0714 24.5873Z" fill="#013088"/>
</svg>
