<svg width="1366" height="158" viewBox="0 0 1366 158" fill="none" xmlns="http://www.w3.org/2000/svg">
<path fill-rule="evenodd" clip-rule="evenodd" d="M1158.81 154.096C1194.25 159.221 1234.61 147.263 1271.67 129.249C1308.48 111.36 1341.84 87.5917 1363.58 69.0429L1363.6 68.8775L1366 70.5372L1365.73 70.7669C1343.86 89.4879 1310.12 113.573 1272.85 131.688C1235.62 149.786 1194.66 162.019 1158.42 156.779C1132.23 152.989 1113.03 138.961 1097.93 120.876C1082.85 102.822 1071.79 80.6506 1061.87 60.4801L1061.08 58.8854C1056.4 49.3623 1051.95 40.3332 1047.43 32.3837C1042.65 23.9862 1037.82 16.8798 1032.58 11.7218C1027.36 6.57661 1021.81 3.43611 1015.56 2.82211C1009.3 2.20812 1002.13 4.10568 993.628 9.47246C974.563 21.5106 957.515 33.7771 941.617 45.2161L941.002 45.6586C924.944 57.2128 910.03 67.922 895.436 76.619C866.213 94.0341 838.099 103.486 804.209 95.6348C772.151 88.2078 751.929 71.6907 733.556 56.6829C732.579 55.8852 731.608 55.0916 730.64 54.3041C711.453 38.6871 693.798 25.4325 665.74 25.9523C638.639 26.4545 621.711 38.6268 602.418 54.7691C600.408 56.4545 598.363 58.1827 596.292 59.9434C578.455 75.0535 557.754 92.5948 525.336 106.516C474.322 128.419 434.24 129.288 404.13 122.186C374.027 115.088 354.01 100.057 343.071 90.3539C339.483 87.1736 336.058 84.1206 332.775 81.1935C318.024 68.0521 306.124 57.4501 295.415 49.2878C282.35 39.3235 271.18 33.0913 258.955 30.3615C246.736 27.633 233.326 28.3738 215.726 32.6081C198.105 36.8458 176.396 44.5567 147.599 55.6901C91.63 77.3266 63.5574 78.4645 44.9823 70.6823C35.7082 66.7957 28.9254 60.7302 22.3185 54.191C21.188 53.0694 20.0643 51.9349 18.927 50.795C13.4303 45.2555 7.78466 39.5715 0.575307 34.4941L-1.08326e-05 34.0896L-1.08896e-05 33.4376L2.70775 31.679L2.70775 32.6854C9.8629 37.8088 15.5356 43.5273 20.897 48.9286C22.0139 50.057 23.1241 51.1712 24.2275 52.2636C30.7803 58.7547 37.2585 64.5057 46.0316 68.1816C63.5574 75.5239 90.7296 74.7696 146.624 53.1616C175.421 42.0289 197.279 34.2563 215.089 29.9718C232.913 25.684 246.777 24.8646 259.544 27.7157C272.311 30.5668 283.846 37.0552 297.059 47.1313C307.857 55.3621 319.852 66.0515 334.602 79.1963L334.602 79.1984C337.885 82.1193 341.297 85.1615 344.865 88.3244C355.608 97.8531 375.239 112.588 404.746 119.547C434.24 126.503 473.733 125.722 524.266 104.025C556.299 90.2706 576.708 72.9777 594.539 57.8736L594.566 57.8506C596.637 56.0974 598.668 54.374 600.685 52.6892C620.059 36.4764 637.606 23.7626 665.69 23.2421C694.807 22.702 713.137 36.5645 732.348 52.2005C732.97 52.7068 733.593 53.2144 734.217 53.724L735.208 54.5332C753.601 69.5532 773.388 85.7118 804.82 92.9937C837.759 100.625 865.137 91.5201 894.051 74.289C908.526 65.6632 923.342 55.0266 939.422 43.4574L940.058 42.9993L940.06 42.9979C955.945 31.5684 973.049 19.2612 992.184 7.17977C1001.01 1.60765 1008.78 -0.567107 1015.83 0.124161C1022.88 0.816101 1028.97 4.35983 1034.48 9.7903C1039.98 15.2079 1044.95 22.5678 1049.78 31.0411C1054.35 39.0665 1058.83 48.1668 1063.5 57.6669L1064.3 59.2819C1074.24 79.4938 1085.17 101.372 1100.01 119.137C1114.81 136.869 1133.45 150.428 1158.81 154.096Z" fill="#FF5001"/>
</svg>
